<svg width="359" height="591"
 viewBox="0.00 0.00 269.00 443.00" xmlns="http://www.w3.org/2000/svg" xmlns:xlink="http://www.w3.org/1999/xlink">
<g id="graph0" class="graph" transform="scale(1 1) rotate(0) translate(4 439.1)">
<title>fts_tokenize</title>
<!-- in -->
<g id="node1" class="node">
<title>in</title>
<path fill="#f6f8fa" stroke="#c7d0da" stroke-width="1.2" d="M239.06,-435.1C239.06,-435.1 22.12,-435.1 22.12,-435.1 16.12,-435.1 10.12,-429.1 10.12,-423.1 10.12,-423.1 10.12,-411.1 10.12,-411.1 10.12,-405.1 16.12,-399.1 22.12,-399.1 22.12,-399.1 239.06,-399.1 239.06,-399.1 245.06,-399.1 251.06,-405.1 251.06,-411.1 251.06,-411.1 251.06,-423.1 251.06,-423.1 251.06,-429.1 245.06,-435.1 239.06,-435.1"/>
<text xml:space="preserve" text-anchor="middle" x="130.59" y="-413.4" font-family="Menlo,Consolas,monospace" font-size="11.00" fill="#1a1a1a">&quot;Hello, World! This is a TEST.&quot;</text>
</g>
<!-- s1 -->
<g id="node2" class="node">
<title>s1</title>
<path fill="#eef4fb" stroke="#4a90d9" stroke-width="1.2" d="M249.18,-373.1C249.18,-373.1 12,-373.1 12,-373.1 6,-373.1 0,-367.1 0,-361.1 0,-361.1 0,-339.38 0,-339.38 0,-333.38 6,-327.38 12,-327.38 12,-327.38 249.18,-327.38 249.18,-327.38 255.18,-327.38 261.18,-333.38 261.18,-339.38 261.18,-339.38 261.18,-361.1 261.18,-361.1 261.18,-367.1 255.18,-373.1 249.18,-373.1"/>
<text xml:space="preserve" text-anchor="start" x="15.84" y="-353.29" font-family="Menlo,Consolas,monospace" font-size="11.00" fill="#1a1a1a">1. Split on non&#45;alphanumeric</text>
<text xml:space="preserve" text-anchor="start" x="15.84" y="-339.79" font-family="Menlo,Consolas,monospace" font-size="11.00" fill="#1a1a1a"> &#160;&#160;Hello &#160;World &#160;This &#160;is &#160;a &#160;TEST</text>
</g>
<!-- in&#45;&gt;s1 -->
<g id="edge1" class="edge">
<title>in&#45;&gt;s1</title>
<path fill="none" stroke="#6b7280" stroke-width="1.1" d="M130.59,-398.72C130.59,-393.47 130.59,-387.56 130.59,-381.72"/>
<polygon fill="#6b7280" stroke="#6b7280" stroke-width="1.1" points="133.04,-381.99 130.59,-374.99 128.14,-381.99 133.04,-381.99"/>
</g>
<!-- s2 -->
<g id="node3" class="node">
<title>s2</title>
<path fill="#eef4fb" stroke="#4a90d9" stroke-width="1.2" d="M239.06,-301.38C239.06,-301.38 22.12,-301.38 22.12,-301.38 16.12,-301.38 10.12,-295.38 10.12,-289.38 10.12,-289.38 10.12,-254.16 10.12,-254.16 10.12,-248.16 16.12,-242.16 22.12,-242.16 22.12,-242.16 239.06,-242.16 239.06,-242.16 245.06,-242.16 251.06,-248.16 251.06,-254.16 251.06,-254.16 251.06,-289.38 251.06,-289.38 251.06,-295.38 245.06,-301.38 239.06,-301.38"/>
<text xml:space="preserve" text-anchor="start" x="25.97" y="-281.57" font-family="Menlo,Consolas,monospace" font-size="11.00" fill="#1a1a1a">2. Length filter (2…64)</text>
<text xml:space="preserve" text-anchor="start" x="25.97" y="-268.07" font-family="Menlo,Consolas,monospace" font-size="11.00" fill="#1a1a1a"> &#160;&#160;Hello &#160;World &#160;This &#160;is &#160;TEST</text>
<text xml:space="preserve" text-anchor="start" x="25.97" y="-254.57" font-family="Menlo,Consolas,monospace" font-size="11.00" fill="#1a1a1a"> &#160;&#160;(&quot;a&quot; dropped)</text>
</g>
<!-- s1&#45;&gt;s2 -->
<g id="edge2" class="edge">
<title>s1&#45;&gt;s2</title>
<path fill="none" stroke="#6b7280" stroke-width="1.1" d="M130.59,-327.12C130.59,-321.85 130.59,-316.07 130.59,-310.31"/>
<polygon fill="#6b7280" stroke="#6b7280" stroke-width="1.1" points="133.04,-310.62 130.59,-303.62 128.14,-310.62 133.04,-310.62"/>
</g>
<!-- s3 -->
<g id="node4" class="node">
<title>s3</title>
<path fill="#eef4fb" stroke="#4a90d9" stroke-width="1.2" d="M239.06,-216.16C239.06,-216.16 22.12,-216.16 22.12,-216.16 16.12,-216.16 10.12,-210.16 10.12,-204.16 10.12,-204.16 10.12,-182.44 10.12,-182.44 10.12,-176.44 16.12,-170.44 22.12,-170.44 22.12,-170.44 239.06,-170.44 239.06,-170.44 245.06,-170.44 251.06,-176.44 251.06,-182.44 251.06,-182.44 251.06,-204.16 251.06,-204.16 251.06,-210.16 245.06,-216.16 239.06,-216.16"/>
<text xml:space="preserve" text-anchor="start" x="25.97" y="-196.35" font-family="Menlo,Consolas,monospace" font-size="11.00" fill="#1a1a1a">3. Lowercase</text>
<text xml:space="preserve" text-anchor="start" x="25.97" y="-182.85" font-family="Menlo,Consolas,monospace" font-size="11.00" fill="#1a1a1a"> &#160;&#160;hello &#160;world &#160;this &#160;is &#160;test</text>
</g>
<!-- s2&#45;&gt;s3 -->
<g id="edge3" class="edge">
<title>s2&#45;&gt;s3</title>
<path fill="none" stroke="#6b7280" stroke-width="1.1" d="M130.59,-241.86C130.59,-236.31 130.59,-230.48 130.59,-224.88"/>
<polygon fill="#6b7280" stroke="#6b7280" stroke-width="1.1" points="133.04,-225 130.59,-218 128.14,-225 133.04,-225"/>
</g>
<!-- s4 -->
<g id="node5" class="node">
<title>s4</title>
<path fill="#eef4fb" stroke="#4a90d9" stroke-width="1.2" d="M218.81,-144.44C218.81,-144.44 42.38,-144.44 42.38,-144.44 36.37,-144.44 30.38,-138.44 30.38,-132.44 30.38,-132.44 30.38,-97.22 30.38,-97.22 30.38,-91.22 36.38,-85.22 42.38,-85.22 42.38,-85.22 218.81,-85.22 218.81,-85.22 224.81,-85.22 230.81,-91.22 230.81,-97.22 230.81,-97.22 230.81,-132.44 230.81,-132.44 230.81,-138.44 224.81,-144.44 218.81,-144.44"/>
<text xml:space="preserve" text-anchor="start" x="46.22" y="-124.63" font-family="Menlo,Consolas,monospace" font-size="11.00" fill="#1a1a1a">4. Drop stop words</text>
<text xml:space="preserve" text-anchor="start" x="46.22" y="-111.13" font-family="Menlo,Consolas,monospace" font-size="11.00" fill="#1a1a1a"> &#160;&#160;hello &#160;world &#160;test</text>
<text xml:space="preserve" text-anchor="start" x="46.22" y="-97.63" font-family="Menlo,Consolas,monospace" font-size="11.00" fill="#1a1a1a"> &#160;&#160;(&quot;this&quot;, &quot;is&quot; dropped)</text>
</g>
<!-- s3&#45;&gt;s4 -->
<g id="edge4" class="edge">
<title>s3&#45;&gt;s4</title>
<path fill="none" stroke="#6b7280" stroke-width="1.1" d="M130.59,-170.18C130.59,-164.91 130.59,-159.13 130.59,-153.37"/>
<polygon fill="#6b7280" stroke="#6b7280" stroke-width="1.1" points="133.04,-153.68 130.59,-146.68 128.14,-153.68 133.04,-153.68"/>
</g>
<!-- out -->
<g id="node6" class="node">
<title>out</title>
<path fill="#eaf5ea" stroke="#2f7d32" stroke-width="1.2" d="M205.31,-59.22C205.31,-59.22 55.88,-59.22 55.88,-59.22 49.88,-59.22 43.88,-53.22 43.88,-47.22 43.88,-47.22 43.88,-12 43.88,-12 43.88,-6 49.88,0 55.88,0 55.88,0 205.31,0 205.31,0 211.31,0 217.31,-6 217.31,-12 217.31,-12 217.31,-47.22 217.31,-47.22 217.31,-53.22 211.31,-59.22 205.31,-59.22"/>
<text xml:space="preserve" text-anchor="start" x="59.72" y="-39.41" font-family="Menlo,Consolas,monospace" font-size="11.00" fill="#1a1a1a">Token{&quot;hello&quot;, pos 0}</text>
<text xml:space="preserve" text-anchor="start" x="59.72" y="-25.91" font-family="Menlo,Consolas,monospace" font-size="11.00" fill="#1a1a1a">Token{&quot;world&quot;, pos 1}</text>
<text xml:space="preserve" text-anchor="start" x="59.72" y="-12.41" font-family="Menlo,Consolas,monospace" font-size="11.00" fill="#1a1a1a">Token{&quot;test&quot;, &#160;pos 2}</text>
</g>
<!-- s4&#45;&gt;out -->
<g id="edge5" class="edge">
<title>s4&#45;&gt;out</title>
<path fill="none" stroke="#6b7280" stroke-width="1.1" d="M130.59,-84.72C130.59,-79.37 130.59,-73.72 130.59,-68.16"/>
<polygon fill="#6b7280" stroke="#6b7280" stroke-width="1.1" points="133.04,-68.22 130.59,-61.22 128.14,-68.22 133.04,-68.22"/>
</g>
</g>
</svg>
