<svg
 viewBox="0.00 0.00 272.00 456.00" xmlns="http://www.w3.org/2000/svg" xmlns:xlink="http://www.w3.org/1999/xlink">
<g id="graph0" class="graph" transform="scale(1 1) rotate(0) translate(4 452.14)">
<title>recovery_flow</title>
<!-- start -->
<g id="node1" class="node">
<title>start</title>
<path fill="#f6f8fa" stroke="#c7d0da" stroke-width="1.2" d="M249.63,-448.14C249.63,-448.14 14.43,-448.14 14.43,-448.14 8.43,-448.14 2.43,-442.14 2.43,-436.14 2.43,-436.14 2.43,-424.14 2.43,-424.14 2.43,-418.14 8.43,-412.14 14.43,-412.14 14.43,-412.14 249.63,-412.14 249.63,-412.14 255.63,-412.14 261.63,-418.14 261.63,-424.14 261.63,-424.14 261.63,-436.14 261.63,-436.14 261.63,-442.14 255.63,-448.14 249.63,-448.14"/>
<text xml:space="preserve" text-anchor="middle" x="132.03" y="-425.12" font-family="Helvetica,Arial,sans-serif" font-size="12.00" fill="#1a1a1a">Database startup</text>
</g>
<!-- open -->
<g id="node2" class="node">
<title>open</title>
<path fill="#eef4fb" stroke="#4a90d9" stroke-width="1.2" d="M249.63,-382.14C249.63,-382.14 14.43,-382.14 14.43,-382.14 8.43,-382.14 2.43,-376.14 2.43,-370.14 2.43,-370.14 2.43,-348.48 2.43,-348.48 2.43,-342.48 8.43,-336.48 14.43,-336.48 14.43,-336.48 249.63,-336.48 249.63,-336.48 255.63,-336.48 261.63,-342.48 261.63,-348.48 261.63,-348.48 261.63,-370.14 261.63,-370.14 261.63,-376.14 255.63,-382.14 249.63,-382.14"/>
<text xml:space="preserve" text-anchor="middle" x="132.03" y="-360.66" font-family="Helvetica,Arial,sans-serif" font-size="12.00" fill="#1a1a1a">Open WAL file</text>
<text xml:space="preserve" text-anchor="middle" x="132.03" y="-347.91" font-family="Helvetica,Arial,sans-serif" font-size="12.00" fill="#1a1a1a">read checkpoint_lsn from header</text>
</g>
<!-- start&#45;&gt;open -->
<g id="edge1" class="edge">
<title>start&#45;&gt;open</title>
<path fill="none" stroke="#6b7280" stroke-width="1.1" d="M132.03,-411.77C132.03,-405.42 132.03,-398.02 132.03,-390.86"/>
<polygon fill="#6b7280" stroke="#6b7280" stroke-width="1.1" points="134.48,-391.29 132.03,-384.29 129.58,-391.29 134.48,-391.29"/>
</g>
<!-- analysis -->
<g id="node3" class="node">
<title>analysis</title>
<path fill="#dbe9f8" stroke="#4a90d9" stroke-width="1.2" d="M252.06,-306.48C252.06,-306.48 12,-306.48 12,-306.48 6,-306.48 0,-300.48 0,-294.48 0,-294.48 0,-244.32 0,-244.32 0,-238.32 6,-232.32 12,-232.32 12,-232.32 252.06,-232.32 252.06,-232.32 258.06,-232.32 264.06,-238.32 264.06,-244.32 264.06,-244.32 264.06,-294.48 264.06,-294.48 264.06,-300.48 258.06,-306.48 252.06,-306.48"/>
<text xml:space="preserve" text-anchor="start" x="17.28" y="-285.95" font-family="Menlo,Consolas,monospace" font-size="11.00" fill="#1a1a1a">Analysis phase</text>
<text xml:space="preserve" text-anchor="start" x="17.28" y="-272.45" font-family="Menlo,Consolas,monospace" font-size="11.00" fill="#1a1a1a"> &#160;track transaction states</text>
<text xml:space="preserve" text-anchor="start" x="17.28" y="-258.95" font-family="Menlo,Consolas,monospace" font-size="11.00" fill="#1a1a1a"> &#160;build the redo list</text>
<text xml:space="preserve" text-anchor="start" x="17.28" y="-245.45" font-family="Menlo,Consolas,monospace" font-size="11.00" fill="#1a1a1a"> &#160;stop at corruption or end of log</text>
</g>
<!-- open&#45;&gt;analysis -->
<g id="edge2" class="edge">
<title>open&#45;&gt;analysis</title>
<path fill="none" stroke="#6b7280" stroke-width="1.1" d="M132.03,-336.13C132.03,-329.77 132.03,-322.59 132.03,-315.38"/>
<polygon fill="#6b7280" stroke="#6b7280" stroke-width="1.1" points="134.48,-315.61 132.03,-308.61 129.58,-315.61 134.48,-315.61"/>
</g>
<!-- redo -->
<g id="node4" class="node">
<title>redo</title>
<path fill="#dbe9f8" stroke="#4a90d9" stroke-width="1.2" d="M249.63,-202.32C249.63,-202.32 14.43,-202.32 14.43,-202.32 8.43,-202.32 2.43,-196.32 2.43,-190.32 2.43,-190.32 2.43,-153.66 2.43,-153.66 2.43,-147.66 8.43,-141.66 14.43,-141.66 14.43,-141.66 249.63,-141.66 249.63,-141.66 255.63,-141.66 261.63,-147.66 261.63,-153.66 261.63,-153.66 261.63,-190.32 261.63,-190.32 261.63,-196.32 255.63,-202.32 249.63,-202.32"/>
<text xml:space="preserve" text-anchor="start" x="19.71" y="-181.79" font-family="Menlo,Consolas,monospace" font-size="11.00" fill="#1a1a1a">Redo phase</text>
<text xml:space="preserve" text-anchor="start" x="19.71" y="-168.29" font-family="Menlo,Consolas,monospace" font-size="11.00" fill="#1a1a1a"> &#160;committed → apply to database</text>
<text xml:space="preserve" text-anchor="start" x="19.71" y="-154.79" font-family="Menlo,Consolas,monospace" font-size="11.00" fill="#1a1a1a"> &#160;otherwise → discard</text>
</g>
<!-- analysis&#45;&gt;redo -->
<g id="edge3" class="edge">
<title>analysis&#45;&gt;redo</title>
<path fill="none" stroke="#6b7280" stroke-width="1.1" d="M132.03,-231.78C132.03,-225.06 132.03,-218.02 132.03,-211.25"/>
<polygon fill="#6b7280" stroke="#6b7280" stroke-width="1.1" points="134.48,-211.52 132.03,-204.52 129.58,-211.52 134.48,-211.52"/>
</g>
<!-- sync -->
<g id="node5" class="node">
<title>sync</title>
<path fill="#eef4fb" stroke="#4a90d9" stroke-width="1.2" d="M249.63,-111.66C249.63,-111.66 14.43,-111.66 14.43,-111.66 8.43,-111.66 2.43,-105.66 2.43,-99.66 2.43,-99.66 2.43,-78 2.43,-78 2.43,-72 8.43,-66 14.43,-66 14.43,-66 249.63,-66 249.63,-66 255.63,-66 261.63,-72 261.63,-78 261.63,-78 261.63,-99.66 261.63,-99.66 261.63,-105.66 255.63,-111.66 249.63,-111.66"/>
<text xml:space="preserve" text-anchor="middle" x="132.03" y="-90.18" font-family="Helvetica,Arial,sans-serif" font-size="12.00" fill="#1a1a1a">Sync database file</text>
<text xml:space="preserve" text-anchor="middle" x="132.03" y="-77.43" font-family="Helvetica,Arial,sans-serif" font-size="12.00" fill="#1a1a1a">return recovery statistics</text>
</g>
<!-- redo&#45;&gt;sync -->
<g id="edge4" class="edge">
<title>redo&#45;&gt;sync</title>
<path fill="none" stroke="#6b7280" stroke-width="1.1" d="M132.03,-141.23C132.03,-134.49 132.03,-127.31 132.03,-120.53"/>
<polygon fill="#6b7280" stroke="#6b7280" stroke-width="1.1" points="134.48,-120.88 132.03,-113.88 129.58,-120.88 134.48,-120.88"/>
</g>
<!-- ready -->
<g id="node6" class="node">
<title>ready</title>
<path fill="#eaf5ea" stroke="#2f7d32" stroke-width="1.5" d="M249.63,-36C249.63,-36 14.43,-36 14.43,-36 8.43,-36 2.43,-30 2.43,-24 2.43,-24 2.43,-12 2.43,-12 2.43,-6 8.43,0 14.43,0 14.43,0 249.63,0 249.63,0 255.63,0 261.63,-6 261.63,-12 261.63,-12 261.63,-24 261.63,-24 261.63,-30 255.63,-36 249.63,-36"/>
<text xml:space="preserve" text-anchor="middle" x="132.03" y="-12.97" font-family="Helvetica,Arial,sans-serif" font-size="12.00" fill="#1a1a1a">Database ready for use</text>
</g>
<!-- sync&#45;&gt;ready -->
<g id="edge5" class="edge">
<title>sync&#45;&gt;ready</title>
<path fill="none" stroke="#6b7280" stroke-width="1.1" d="M132.03,-65.67C132.03,-59.04 132.03,-51.71 132.03,-44.86"/>
<polygon fill="#6b7280" stroke="#6b7280" stroke-width="1.1" points="134.48,-45.2 132.03,-38.2 129.58,-45.2 134.48,-45.2"/>
</g>
</g>
</svg>
